<svg width="269" height="66" viewBox="0 0 269 66" fill="none" xmlns="http://www.w3.org/2000/svg">
<path d="M209.838 19.4673C209.279 19.4673 208.852 19.9202 208.852 20.4796C208.852 20.6394 208.879 20.7726 208.932 20.9058L208.319 21.4652H200.804V22.2378H208.479C208.586 22.2378 208.666 22.1845 208.746 22.1312L209.492 21.412C209.492 21.412 209.492 21.412 209.518 21.412C209.625 21.4386 209.732 21.4652 209.838 21.4652C210.398 21.4652 210.851 21.0124 210.851 20.4529C210.824 19.8935 210.398 19.4673 209.838 19.4673ZM209.838 20.6661C209.732 20.6661 209.625 20.5595 209.625 20.4529C209.625 20.3464 209.705 20.2398 209.838 20.2398C209.971 20.2398 210.051 20.3464 210.051 20.4529C210.051 20.5595 209.971 20.6661 209.838 20.6661Z" fill="url(#paint0_linear_648_1321)"/>
<path d="M214.662 23.8628C214.475 23.7029 214.262 23.623 214.022 23.623C213.596 23.623 213.249 23.8628 213.089 24.2357H209.998L209.358 23.623L209.998 22.9837H211.437C211.597 23.33 211.943 23.5964 212.343 23.5964C212.903 23.5964 213.356 23.1435 213.356 22.5841C213.356 22.0246 212.903 21.5718 212.343 21.5718C211.943 21.5718 211.57 21.8115 211.437 22.1845H209.838C209.705 22.1845 209.625 22.2378 209.545 22.3177L208.639 23.2234H200.804V23.996H208.666L209.598 24.8751C209.678 24.955 209.758 24.9816 209.865 24.9816H213.089C213.249 25.3279 213.596 25.5943 214.022 25.5943H214.075C214.608 25.5677 215.035 25.1414 215.035 24.6087C215.008 24.3156 214.875 24.0492 214.662 23.8628ZM212.37 22.3443C212.476 22.3443 212.583 22.4242 212.583 22.5574C212.583 22.664 212.476 22.7705 212.37 22.7705C212.263 22.7705 212.157 22.664 212.157 22.5574C212.157 22.4509 212.263 22.3443 212.37 22.3443ZM213.995 24.8218C213.862 24.8218 213.782 24.7419 213.782 24.6087C213.782 24.4755 213.862 24.3955 213.995 24.3955C214.102 24.3955 214.209 24.4755 214.209 24.6087C214.235 24.7419 214.129 24.8218 213.995 24.8218Z" fill="url(#paint1_linear_648_1321)"/>
<path d="M210.877 26.7397C210.995 26.7397 211.091 26.6443 211.091 26.5266C211.091 26.4089 210.995 26.3135 210.877 26.3135C210.76 26.3135 210.664 26.4089 210.664 26.5266C210.664 26.6443 210.76 26.7397 210.877 26.7397Z" fill="url(#paint2_linear_648_1321)"/>
<path d="M210.877 25.5143C210.478 25.5143 210.105 25.754 209.971 26.127H208.133L207.173 25.0614C207.093 24.9815 206.987 24.9282 206.88 24.9282H200.804V25.7008H206.72L207.706 26.7663C207.786 26.8462 207.893 26.8995 207.999 26.8995H209.998C210.158 27.2458 210.504 27.5122 210.904 27.5122C211.464 27.5122 211.917 27.0594 211.917 26.5266C211.863 25.9672 211.437 25.5143 210.877 25.5143ZM210.877 26.7397C210.771 26.7397 210.664 26.6598 210.664 26.5266C210.664 26.3934 210.771 26.3135 210.877 26.3135C210.984 26.3135 211.091 26.3934 211.091 26.5266C211.091 26.6331 210.984 26.7397 210.877 26.7397Z" fill="url(#paint3_linear_648_1321)"/>
<path d="M6.98217 2.97754H10.1002C11.1661 2.97754 11.8324 3.53697 11.9656 4.60254L17.9884 46.5062H13.458L9.35398 14.8587L5.24996 46.5062H0.719543L6.98217 2.97754Z" fill="black"/>
<path d="M43.1988 34.6783V40.7254C43.1988 44.7746 41.0136 46.9324 36.9895 46.9324H35.737C31.6862 46.9324 29.5276 44.748 29.5276 40.7254V35.7439C29.5276 34.7582 29.954 34.0656 30.8868 33.6927L33.8715 32.5205V40.7254C33.8715 42.3504 34.7509 43.2029 36.3499 43.2029C37.9755 43.2029 38.8283 42.3238 38.8283 40.7254V34.705C38.8283 28.3648 29.501 16.3504 29.501 10.3832V8.75823C29.501 4.70905 31.6862 2.55127 35.7103 2.55127H36.9628C41.0136 2.55127 43.1722 4.73569 43.1722 8.75823V10.9959C43.1722 11.9816 42.7458 12.6742 41.813 13.0472L38.8283 14.2193V8.75823C38.8283 7.13323 37.9489 6.28078 36.3499 6.28078C34.7243 6.28078 33.8715 7.15987 33.8715 8.75823V10.3566C33.8715 16.2173 43.1988 27.0861 43.1988 34.6783Z" fill="black"/>
<path d="M59.5616 2.97754H62.1733V21.7583H67.1567V2.97754H69.7684C70.8877 2.97754 71.5006 3.59024 71.5006 4.7091V46.5062H67.1567V25.5943H62.1733V46.4796H57.8294V4.7091C57.8028 3.59024 58.4424 2.97754 59.5616 2.97754Z" fill="black"/>
<path d="M101.988 9.18451V19.3874C101.988 21.1989 101.295 22.6107 100.069 23.6763C101.321 24.7419 101.988 26.1538 101.988 27.9652V46.5062H99.376C98.2567 46.5062 97.6438 45.8935 97.6438 44.7747V28.0984C97.6438 26.4734 96.7643 25.621 95.1654 25.621H92.6869V46.5062H88.3431V2.97754H95.8049C99.8024 2.97754 101.988 5.13533 101.988 9.18451ZM95.1387 21.7583C96.7643 21.7583 97.6171 20.8792 97.6171 19.2808V9.31771C97.6171 7.69271 96.7377 6.84024 95.1387 6.84024H92.6603V21.7583H95.1387Z" fill="black"/>
<path d="M119.283 2.97754H130.583L129.597 5.455C129.223 6.38738 128.531 6.81361 127.545 6.81361H121.895V21.7316H128.797L127.811 24.2091C127.438 25.1415 126.745 25.5677 125.759 25.5677H121.895V42.6169H131.275L130.289 45.0944C129.916 46.0267 129.223 46.453 128.237 46.453H117.524V4.7091C117.524 3.59024 118.164 2.97754 119.283 2.97754Z" fill="black"/>
<path d="M147.452 4.7091V46.5062H143.108V2.97754H145.719C146.839 2.97754 147.452 3.59024 147.452 4.7091Z" fill="black"/>
<path d="M187.053 6.81361H182.709V46.4796H178.365V6.81361H171.623V4.7091C171.623 3.59024 172.236 2.97754 173.355 2.97754H190.091L189.105 5.455C188.732 6.38738 188.065 6.81361 187.053 6.81361Z" fill="black"/>
<path d="M203.789 42.6433V6.83997H209.465C210.451 6.83997 211.144 6.38711 211.517 5.48137L212.503 3.00391H201.177C200.058 3.00391 199.445 3.61661 199.445 4.73546V46.5326H210.158C211.144 46.5326 211.837 46.1064 212.21 45.174L213.196 42.6965H203.789V42.6433Z" fill="black"/>
<path d="M236.008 33.1865L238.993 32.0144V40.7254C238.993 44.7746 236.807 46.9324 232.783 46.9324H231.531C227.48 46.9324 225.321 44.748 225.321 40.7254V8.75823C225.321 4.70905 227.507 2.55127 231.531 2.55127H232.783C236.834 2.55127 238.993 4.73569 238.993 8.75823V14.2193C238.993 15.205 238.566 15.8976 237.634 16.2705L234.649 17.4427V8.75823C234.649 7.13323 233.769 6.28078 232.17 6.28078C230.545 6.28078 229.692 7.15987 229.692 8.75823V40.7254C229.692 42.3504 230.571 43.2029 232.17 43.2029C233.796 43.2029 234.649 42.3238 234.649 40.7254V35.2644C234.649 34.2521 235.075 33.5595 236.008 33.1865Z" fill="black"/>
<path d="M255.995 2.97754H258.607V21.7583H263.564V2.97754H266.175C267.294 2.97754 267.907 3.59024 267.907 4.7091V46.5062H263.564V25.5943H258.58V46.4796H254.236V4.7091C254.236 3.59024 254.876 2.97754 255.995 2.97754Z" fill="black"/>
<path d="M3.78426 63.076C3.30457 63.076 2.87818 62.9961 2.47843 62.8363C2.07869 62.6764 1.73225 62.4633 1.4391 62.1703C1.14596 61.8772 0.932762 61.5576 0.772865 61.158C0.612968 60.785 0.53302 60.3588 0.53302 59.9059C0.53302 59.4531 0.612968 59.0268 0.772865 58.6539C0.932762 58.2809 1.17261 57.9346 1.46575 57.6416C1.7589 57.3486 2.10534 57.1354 2.50508 56.9756C2.90482 56.8158 3.33122 56.7358 3.81091 56.7358C4.26395 56.7358 4.69034 56.8158 5.09008 56.949C5.48983 57.1088 5.80962 57.3219 6.10276 57.615L5.67637 58.0412C5.40988 57.7748 5.14338 57.5883 4.82359 57.4818C4.50379 57.3752 4.184 57.3219 3.83756 57.3219C3.46446 57.3219 3.11802 57.3752 2.79823 57.5084C2.47843 57.6416 2.21194 57.8281 1.97209 58.0412C1.73225 58.2809 1.5457 58.5473 1.41245 58.867C1.27921 59.1867 1.22591 59.5063 1.22591 59.8793C1.22591 60.2522 1.27921 60.5986 1.41245 60.8916C1.5457 61.2113 1.73225 61.4776 1.97209 61.7174C2.21194 61.9572 2.47843 62.1436 2.79823 62.2502C3.11802 62.3834 3.46446 62.4367 3.83756 62.4367C4.184 62.4367 4.53044 62.3834 4.82359 62.2502C5.14338 62.1436 5.40988 61.9305 5.67637 61.6908L6.10276 62.117C5.83627 62.41 5.48983 62.6498 5.09008 62.8096C4.66369 62.9961 4.2373 63.076 3.78426 63.076Z" fill="black"/>
<path d="M10.6865 63.076C10.2068 63.076 9.78037 62.9961 9.38063 62.8363C8.98089 62.6764 8.63445 62.4633 8.3413 62.1703C8.04816 61.8772 7.80831 61.5576 7.64841 61.158C7.48852 60.785 7.40857 60.3588 7.40857 59.9059C7.40857 59.4531 7.48852 59.0268 7.64841 58.6539C7.80831 58.2809 8.04816 57.9346 8.3413 57.6416C8.63445 57.3486 8.98089 57.1354 9.38063 56.9756C9.78037 56.8158 10.2068 56.7358 10.6865 56.7358C11.1661 56.7358 11.5925 56.8158 11.9923 56.9756C12.392 57.1354 12.7385 57.3486 13.0316 57.6416C13.3248 57.9346 13.5646 58.2543 13.7245 58.6539C13.8844 59.0268 13.9643 59.4531 13.9643 59.9059C13.9643 60.3588 13.8844 60.785 13.7245 61.158C13.5646 61.5309 13.3248 61.8772 13.0316 62.1703C12.7385 62.4633 12.392 62.6764 11.9923 62.8363C11.5925 62.9961 11.1661 63.076 10.6865 63.076ZM10.6865 62.4899C11.0595 62.4899 11.406 62.4367 11.7258 62.3035C12.0456 62.1703 12.3121 61.9838 12.5519 61.7707C12.7918 61.5309 12.9783 61.2645 13.0849 60.9449C13.2182 60.6252 13.2715 60.3055 13.2715 59.9326C13.2715 59.5596 13.2182 59.2133 13.0849 58.9203C12.9517 58.6006 12.7651 58.3342 12.5519 58.0945C12.3121 57.8547 12.0456 57.6682 11.7258 57.5617C11.406 57.4285 11.0595 57.3752 10.6865 57.3752C10.3134 57.3752 9.96692 57.4285 9.64713 57.5617C9.32733 57.6949 9.06084 57.8813 8.82099 58.0945C8.58115 58.3342 8.3946 58.6006 8.26135 58.9203C8.12811 59.2399 8.07481 59.5596 8.07481 59.9326C8.07481 60.3055 8.12811 60.6252 8.26135 60.9449C8.3946 61.2645 8.58115 61.5309 8.82099 61.7707C9.06084 62.0104 9.32733 62.1969 9.64713 62.3035C9.96692 62.41 10.3134 62.4899 10.6865 62.4899Z" fill="black"/>
<path d="M16.0697 63.0227V56.8157H16.6027L19.4542 61.6374H19.161L21.9592 56.7891H22.4922V62.996H21.8526V57.7747H22.0125L19.4542 62.2235H19.1344L16.5227 57.8014H16.6826V63.0227H16.0697Z" fill="black"/>
<path d="M25.1838 63.0229V56.8159H27.5023C28.0353 56.8159 28.4883 56.8958 28.8614 57.0557C29.2345 57.2155 29.5276 57.4553 29.7408 57.7749C29.954 58.0946 30.034 58.4675 30.034 58.9204C30.034 59.3466 29.9274 59.7462 29.7408 60.0393C29.5276 60.3589 29.2345 60.5987 28.8614 60.7585C28.4883 60.9184 28.0353 61.0249 27.5023 61.0249H25.5569L25.85 60.7053V62.9696H25.1838V63.0229ZM25.85 60.7852L25.5569 60.4655H27.5023C28.1152 60.4655 28.5949 60.3323 28.9147 60.0659C29.2345 59.7995 29.3944 59.4266 29.3944 58.9204C29.3944 58.4143 29.2345 58.0413 28.9147 57.7749C28.5949 57.5085 28.1152 57.3753 27.5023 57.3753H25.5569L25.85 57.0557V60.7852Z" fill="black"/>
<path d="M32.1127 63.0229V56.8159H32.7789V62.4634H36.2433V63.0229H32.1127Z" fill="black"/>
<path d="M38.6418 62.4366H42.3728V62.996H37.9756V56.7891H42.2395V57.3485H38.6418V62.4366ZM38.5885 59.5862H41.8664V60.1456H38.5885V59.5862Z" fill="black"/>
<path d="M43.6519 63.0227L46.1836 59.5862V60.0923L43.7852 56.8157H44.5314L46.5301 59.5329H46.2369L48.2356 56.7891H48.9552L46.5834 60.0124V59.5596L49.1151 62.996H48.3422L46.2103 60.0923H46.4768L44.3448 62.996H43.6519V63.0227Z" fill="black"/>
<path d="M50.7673 63.0229V56.8159H51.4336V63.0229H50.7673Z" fill="black"/>
<path d="M55.2977 63.0229V57.3753H53.1125V56.8159H58.1226V57.3753H55.964V63.0229H55.2977Z" fill="black"/>
<path d="M61.2672 63.0227V60.705L61.4271 61.1046L58.7888 56.7891H59.4817L61.8002 60.5719H61.4271L63.7456 56.7891H64.4119L61.7736 61.1046L61.9335 60.705V62.996H61.2672V63.0227Z" fill="black"/>
<path d="M70.7544 63.076C70.3014 63.076 69.8483 62.996 69.4219 62.8628C68.9956 62.703 68.6758 62.5165 68.4359 62.2768L68.7024 61.7706C68.9156 61.9837 69.2087 62.1702 69.5818 62.3034C69.9549 62.4366 70.328 62.5165 70.7544 62.5165C71.1542 62.5165 71.474 62.4632 71.7138 62.3833C71.9536 62.2768 72.1402 62.1436 72.2468 61.9837C72.3534 61.8239 72.4067 61.6374 72.4067 61.4243C72.4067 61.1846 72.3267 60.9981 72.1935 60.8382C72.0602 60.6784 71.8737 60.5719 71.6605 60.4919C71.4473 60.412 71.1808 60.3321 70.9143 60.2788C70.6478 60.2255 70.3813 60.1456 70.0882 60.0657C69.8217 59.9858 69.5552 59.9059 69.342 59.7727C69.1021 59.6395 68.9423 59.4796 68.7824 59.2932C68.6491 59.0801 68.5692 58.8137 68.5692 58.494C68.5692 58.1743 68.6491 57.9079 68.809 57.6415C68.9689 57.3751 69.2087 57.1887 69.5552 57.0288C69.9016 56.869 70.328 56.7891 70.861 56.7891C71.2075 56.7891 71.5539 56.8423 71.9003 56.9223C72.2468 57.0288 72.5399 57.162 72.7798 57.3218L72.5666 57.8546C72.3001 57.6682 72.0069 57.535 71.7138 57.455C71.4207 57.3751 71.1275 57.3218 70.861 57.3218C70.4879 57.3218 70.1948 57.3751 69.9283 57.4817C69.6884 57.5883 69.5019 57.7214 69.3953 57.8813C69.2887 58.0411 69.2354 58.2276 69.2354 58.4407C69.2354 58.6805 69.3153 58.8669 69.4486 59.0268C69.5818 59.1866 69.7684 59.2932 70.0082 59.3731C70.2481 59.453 70.4879 59.5329 70.7544 59.5862C71.0209 59.6395 71.2874 59.7194 71.5539 59.7993C71.8204 59.8792 72.0602 59.9858 72.3001 60.0923C72.5399 60.2255 72.6998 60.3854 72.8597 60.5719C72.993 60.785 73.0729 61.0247 73.0729 61.371C73.0729 61.6641 72.993 61.9571 72.8331 62.1968C72.6732 62.4632 72.4067 62.6497 72.0869 62.8096C71.7404 62.996 71.2874 63.076 70.7544 63.076Z" fill="black"/>
<path d="M75.1516 63.0229V56.8159H75.8178V63.0229H75.1516Z" fill="black"/>
<path d="M78.4828 63.0229V56.8159H79.0158L81.8406 61.6643H81.5475L84.3457 56.8159H84.8787V63.0229H84.2391V57.8016H84.399L81.814 62.2237H81.5475L78.9358 57.8016H79.0957V63.0229H78.4828Z" fill="black"/>
<path d="M87.5969 63.0229V56.8159H89.9154C90.4484 56.8159 90.9015 56.8958 91.2746 57.0557C91.6476 57.2155 91.9408 57.4553 92.154 57.7749C92.3672 58.0946 92.4471 58.4675 92.4471 58.9204C92.4471 59.3466 92.3405 59.7462 92.154 60.0393C91.9408 60.3589 91.6476 60.5987 91.2746 60.7585C90.9015 60.9184 90.4484 61.0249 89.9154 61.0249H87.97L88.2632 60.7053V62.9696H87.5969V63.0229ZM88.2632 60.7852L87.97 60.4655H89.9154C90.5284 60.4655 91.0081 60.3323 91.3279 60.0659C91.6476 59.7995 91.8075 59.4266 91.8075 58.9204C91.8075 58.4143 91.6476 58.0413 91.3279 57.7749C91.0081 57.5085 90.5284 57.3753 89.9154 57.3753H87.97L88.2632 57.0557V60.7852Z" fill="black"/>
<path d="M94.5524 63.0229V56.8159H95.2187V62.4634H98.6831V63.0229H94.5524Z" fill="black"/>
<path d="M100.415 63.0229V56.8159H101.082V63.0229H100.415Z" fill="black"/>
<path d="M104.413 63.0229H103.747V56.8159H108.01V57.3753H104.413V63.0229ZM104.333 59.7995H107.611V60.3589H104.333V59.7995Z" fill="black"/>
<path d="M110.009 63.0229V56.8159H110.675V63.0229H110.009Z" fill="black"/>
<path d="M114.007 62.4366H117.737V62.996H113.34V56.7891H117.604V57.3485H114.007V62.4366ZM113.927 59.5862H117.205V60.1456H113.927V59.5862Z" fill="black"/>
<path d="M119.923 63.0229V56.8159H122.454C123.121 56.8159 123.707 56.9491 124.187 57.2155C124.693 57.4819 125.066 57.8548 125.359 58.3077C125.626 58.7872 125.786 59.32 125.786 59.9327C125.786 60.5454 125.652 61.0782 125.359 61.5577C125.093 62.0372 124.693 62.3835 124.187 62.6499C123.68 62.9163 123.094 63.0495 122.454 63.0495H119.923V63.0229ZM120.589 62.4368H122.428C122.987 62.4368 123.467 62.3303 123.867 62.1171C124.267 61.904 124.586 61.611 124.8 61.2114C125.013 60.8385 125.146 60.3856 125.146 59.9061C125.146 59.3999 125.039 58.9737 124.8 58.5741C124.586 58.2012 124.267 57.9081 123.867 57.695C123.467 57.4819 122.987 57.3753 122.428 57.3753H120.589V62.4368Z" fill="black"/>
<path d="M133.621 63.076C133.141 63.076 132.715 62.9961 132.315 62.8363C131.915 62.6764 131.569 62.4633 131.275 62.1703C130.982 61.8772 130.742 61.5576 130.583 61.158C130.423 60.785 130.343 60.3588 130.343 59.9059C130.343 59.4531 130.423 59.0268 130.583 58.6539C130.742 58.2809 130.982 57.9346 131.275 57.6416C131.569 57.3486 131.915 57.1354 132.315 56.9756C132.715 56.8158 133.141 56.7358 133.621 56.7358C134.1 56.7358 134.527 56.8158 134.926 56.949C135.326 57.1088 135.646 57.3219 135.939 57.615L135.539 58.0412C135.273 57.7748 134.98 57.5883 134.687 57.4818C134.367 57.3752 134.047 57.3219 133.674 57.3219C133.301 57.3219 132.928 57.3752 132.608 57.5084C132.288 57.6416 131.995 57.8281 131.755 58.0412C131.515 58.2809 131.329 58.5473 131.195 58.867C131.062 59.1867 131.009 59.5063 131.009 59.8793C131.009 60.2522 131.062 60.5719 131.195 60.8916C131.329 61.2113 131.515 61.4776 131.755 61.7174C131.995 61.9572 132.288 62.1436 132.608 62.2502C132.928 62.3834 133.274 62.4367 133.647 62.4367C133.994 62.4367 134.34 62.3834 134.66 62.2768C134.98 62.1703 135.273 61.9838 135.539 61.744L135.912 62.2502C135.619 62.5166 135.273 62.7031 134.873 62.8363C134.447 62.9961 134.047 63.076 133.621 63.076ZM135.246 62.1969V59.9059H135.886V62.2768L135.246 62.1969Z" fill="black"/>
<path d="M138.391 63.0229V56.8159H139.057V62.4634H142.522V63.0229H138.391Z" fill="black"/>
<path d="M146.865 63.076C146.386 63.076 145.959 62.9961 145.56 62.8363C145.16 62.6764 144.813 62.4633 144.52 62.1703C144.227 61.8772 143.987 61.5576 143.827 61.158C143.667 60.785 143.588 60.3588 143.588 59.9059C143.588 59.4531 143.667 59.0268 143.827 58.6539C143.987 58.2809 144.227 57.9346 144.52 57.6416C144.813 57.3486 145.16 57.1354 145.56 56.9756C145.959 56.8158 146.386 56.7358 146.865 56.7358C147.345 56.7358 147.771 56.8158 148.171 56.9756C148.571 57.1354 148.917 57.3486 149.211 57.6416C149.504 57.9346 149.744 58.2543 149.903 58.6539C150.063 59.0268 150.143 59.4531 150.143 59.9059C150.143 60.3588 150.063 60.785 149.903 61.158C149.744 61.5309 149.504 61.8772 149.211 62.1703C148.917 62.4633 148.571 62.6764 148.171 62.8363C147.745 62.9961 147.318 63.076 146.865 63.076ZM146.865 62.4899C147.239 62.4899 147.585 62.4367 147.905 62.3035C148.225 62.1703 148.491 61.9838 148.731 61.7707C148.971 61.5309 149.157 61.2645 149.264 60.9449C149.397 60.6252 149.45 60.3055 149.45 59.9326C149.45 59.5596 149.397 59.2133 149.264 58.9203C149.131 58.6006 148.944 58.3342 148.731 58.0945C148.491 57.8547 148.225 57.6682 147.905 57.5617C147.585 57.4285 147.239 57.3752 146.865 57.3752C146.492 57.3752 146.146 57.4285 145.826 57.5617C145.506 57.6949 145.24 57.8813 145 58.0945C144.76 58.3342 144.574 58.6006 144.44 58.9203C144.307 59.2399 144.254 59.5596 144.254 59.9326C144.254 60.3055 144.307 60.6252 144.44 60.9449C144.574 61.2645 144.76 61.5309 145 61.7707C145.24 62.0104 145.506 62.1969 145.826 62.3035C146.146 62.41 146.492 62.4899 146.865 62.4899Z" fill="black"/>
<path d="M152.249 63.0229V56.8159H154.914C155.606 56.8159 156.139 56.9491 156.513 57.2421C156.886 57.5085 157.072 57.9081 157.072 58.4143C157.072 58.7606 156.992 59.027 156.832 59.2667C156.672 59.5065 156.459 59.6663 156.193 59.7995C155.926 59.9061 155.633 59.986 155.313 59.986L155.473 59.7729C155.873 59.7729 156.219 59.8262 156.486 59.9594C156.779 60.0926 156.992 60.2524 157.152 60.4921C157.312 60.7319 157.392 61.0249 157.392 61.3712C157.392 61.904 157.205 62.3036 156.806 62.5966C156.406 62.8897 155.846 63.0229 155.047 63.0229H152.249ZM152.888 62.4634H155.073C155.606 62.4634 156.033 62.3835 156.326 62.1971C156.619 62.0106 156.752 61.7175 156.752 61.318C156.752 60.9184 156.619 60.6253 156.326 60.4389C156.033 60.2524 155.633 60.1725 155.073 60.1725H152.808V59.6397H154.86C155.367 59.6397 155.74 59.5331 156.006 59.3467C156.273 59.1602 156.406 58.8671 156.406 58.4942C156.406 58.1212 156.273 57.8282 156.006 57.6417C155.74 57.4553 155.34 57.3753 154.86 57.3753H152.888V62.4634Z" fill="black"/>
<path d="M158.591 63.0229L161.416 56.8159H162.056L164.88 63.0229H164.188L161.576 57.1889H161.842L159.231 63.0229H158.591ZM159.71 61.3446L159.897 60.8118H163.495L163.681 61.3446H159.71Z" fill="black"/>
<path d="M166.586 63.0229V56.8159H167.252V62.4634H170.717V63.0229H166.586Z" fill="black"/>
<path d="M172.476 63.0229V56.8159H173.142V62.4634H176.606V63.0229H172.476Z" fill="black"/>
<path d="M179.165 63.0227V60.705L179.324 61.1046L176.686 56.7891H177.379L179.698 60.5719H179.324L181.643 56.7891H182.309L179.671 61.1046L179.831 60.705V62.996H179.165V63.0227Z" fill="black"/>
<path d="M126.718 62.6763L126.958 61.6373L127.011 61.8771C126.932 61.8771 126.852 61.8504 126.798 61.7972C126.745 61.7439 126.718 61.664 126.718 61.584C126.718 61.5041 126.745 61.4242 126.798 61.3709C126.852 61.3177 126.932 61.291 127.011 61.291C127.091 61.291 127.171 61.3177 127.225 61.3709C127.278 61.4242 127.305 61.5041 127.305 61.584C127.305 61.6107 127.305 61.6373 127.305 61.664C127.305 61.6906 127.305 61.7172 127.278 61.7705C127.278 61.7972 127.251 61.8504 127.225 61.9037L126.985 62.6763H126.718Z" fill="black"/>
<defs>
<linearGradient id="paint0_linear_648_1321" x1="200.79" y1="20.8525" x2="210.837" y2="20.8525" gradientUnits="userSpaceOnUse">
<stop stop-color="#B9DA85"/>
<stop offset="0.2103" stop-color="#B5D784"/>
<stop offset="0.4078" stop-color="#AACE82"/>
<stop offset="0.6002" stop-color="#97BE7F"/>
<stop offset="0.7893" stop-color="#7CA87B"/>
<stop offset="0.9746" stop-color="#5A8C75"/>
<stop offset="1" stop-color="#558874"/>
</linearGradient>
<linearGradient id="paint1_linear_648_1321" x1="200.804" y1="23.583" x2="215.035" y2="23.583" gradientUnits="userSpaceOnUse">
<stop stop-color="#B9DA85"/>
<stop offset="0.2103" stop-color="#B5D784"/>
<stop offset="0.4078" stop-color="#AACE82"/>
<stop offset="0.6002" stop-color="#97BE7F"/>
<stop offset="0.7893" stop-color="#7CA87B"/>
<stop offset="0.9746" stop-color="#5A8C75"/>
<stop offset="1" stop-color="#558874"/>
</linearGradient>
<linearGradient id="paint2_linear_648_1321" x1="210.659" y1="26.5266" x2="211.091" y2="26.5266" gradientUnits="userSpaceOnUse">
<stop stop-color="#B9DA85"/>
<stop offset="0.2103" stop-color="#B5D784"/>
<stop offset="0.4078" stop-color="#AACE82"/>
<stop offset="0.6002" stop-color="#97BE7F"/>
<stop offset="0.7893" stop-color="#7CA87B"/>
<stop offset="0.9746" stop-color="#5A8C75"/>
<stop offset="1" stop-color="#558874"/>
</linearGradient>
<linearGradient id="paint3_linear_648_1321" x1="200.79" y1="26.2202" x2="211.875" y2="26.2202" gradientUnits="userSpaceOnUse">
<stop stop-color="#B9DA85"/>
<stop offset="0.2103" stop-color="#B5D784"/>
<stop offset="0.4078" stop-color="#AACE82"/>
<stop offset="0.6002" stop-color="#97BE7F"/>
<stop offset="0.7893" stop-color="#7CA87B"/>
<stop offset="0.9746" stop-color="#5A8C75"/>
<stop offset="1" stop-color="#558874"/>
</linearGradient>
</defs>
</svg>
